# xmcd
#
# Track frame offsets:
#	150
#	13567
#	24030
#	33147
#	43735
#	56495
#	66887
#	79632
#	91760
#	102937
#	117590
#	127595
#	139790
#	149407
#
# Disc length: 2143 seconds
#
# Revision: 0
# Processed by: cddbd v1.5.1PL0 Copyright (c) Steve Scherf et al.
# Submitted via: dBpowerAMP V4.0
#
DISCID=aa085d0e
DTITLE=Gino and Geno - Bis
DYEAR=1900
DGENRE=Sertenejo
TTITLE0=quatro tipos de mulher
TTITLE1=o sorriso da mulher goiana
TTITLE2=vou gastar o barao
TTITLE3=seu telegrama
TTITLE4=roubando a morena
TTITLE5=preciso te esquecer
TTITLE6=vim dizer adeus
TTITLE7=torrao mineiro
TTITLE8=quatro beijos
TTITLE9=vou viver a vida
TTITLE10=transporte da boiada
TTITLE11=a alianca
TTITLE12=castigo
TTITLE13=coracao apaixonado
EXTD=
EXTT0=
EXTT1=
EXTT2=
EXTT3=
EXTT4=
EXTT5=
EXTT6=
EXTT7=
EXTT8=
EXTT9=
EXTT10=
EXTT11=
EXTT12=
EXTT13=
PLAYORDER=
